<?xml version="1.0" standalone="no"?>
<!DOCTYPE svg PUBLIC "-//W3C//DTD SVG 20010904//EN"
 "http://www.w3.org/TR/2001/REC-SVG-20010904/DTD/svg10.dtd">
<svg version="1.0" xmlns="http://www.w3.org/2000/svg"
 width="600.000000pt" height="497.000000pt" viewBox="0 0 600.000000 497.000000"
 preserveAspectRatio="xMidYMid meet">
<g transform="translate(0.000000,497.000000) scale(0.100000,-0.100000)"
fill="#000000" stroke="none">
<path d="M985 4548 c-43 -25 -167 -350 -234 -613 -89 -355 -151 -813 -155
-1143 l-1 -133 32 -30 c47 -41 82 -48 105 -19 15 19 18 41 18 154 0 308 66
815 131 1004 43 125 156 285 301 428 181 179 304 235 413 190 41 -18 55 -58
55 -163 0 -284 -155 -734 -363 -1051 l-65 -100 -59 -7 c-126 -13 -214 -47
-280 -108 -57 -52 -73 -84 -73 -145 0 -55 29 -108 70 -130 37 -19 127 -9 186
21 94 48 248 186 316 284 22 31 27 33 83 33 98 0 274 49 318 88 40 35 8 43
-53 12 -56 -29 -290 -80 -290 -63 0 2 18 31 41 64 48 71 134 241 177 349 145
365 191 735 112 891 -51 99 -168 127 -317 76 -145 -50 -425 -312 -507 -474
-31 -62 -35 -33 -7 45 63 170 104 276 122 319 25 59 24 122 -3 177 -22 47 -44
60 -73 44z m52 -108 c8 -29 2 -52 -34 -150 -84 -220 -92 -244 -87 -251 2 -4
-1 -9 -8 -11 -8 -3 -12 -26 -11 -66 1 -47 -5 -75 -23 -113 -14 -28 -31 -69
-38 -92 -23 -69 -65 -286 -82 -422 -4 -33 -8 -62 -9 -65 -10 -36 -24 -216 -30
-400 -8 -216 -10 -229 -36 -223 -44 12 -52 44 -45 176 9 154 35 462 41 490 3
12 7 40 9 63 5 48 6 50 47 284 11 63 38 185 60 270 23 85 42 160 43 165 2 6 6
18 10 27 4 9 9 22 10 30 2 7 5 20 8 28 3 8 16 44 28 80 39 112 77 199 98 223
20 22 37 8 49 -43z m663 -57 c87 -78 89 -329 7 -643 -43 -162 -170 -468 -219
-527 -6 -7 -7 -13 -2 -13 5 0 4 -4 -1 -8 -13 -9 -75 -106 -75 -117 0 -4 -25
-32 -55 -63 -30 -30 -52 -60 -48 -66 3 -6 3 -8 -1 -4 -5 4 -26 -13 -47 -38
-79 -92 -227 -187 -291 -188 -51 -1 -49 13 6 43 61 33 204 181 240 248 8 15
28 42 44 59 16 17 37 45 47 63 9 19 32 54 50 80 44 61 158 290 191 383 14 40
31 87 39 103 22 49 72 234 86 320 8 44 14 134 14 200 0 108 -2 124 -23 158
-19 30 -21 37 -8 37 9 0 30 -12 46 -27z m-529 -1382 c-39 -55 -181 -191 -221
-211 -66 -34 -110 -23 -110 27 0 95 170 208 318 212 l33 1 -20 -29z"/>
<path d="M3880 4130 c-19 -11 -46 -19 -60 -20 -28 0 -59 -18 -107 -63 -29 -27
-34 -29 -64 -18 -68 23 -115 12 -173 -41 -11 -10 -27 -20 -36 -23 -9 -3 -22
-16 -29 -29 -10 -19 -10 -30 3 -61 9 -21 15 -49 14 -64 0 -14 2 -45 6 -68 6
-35 5 -43 -12 -52 -11 -6 -29 -30 -41 -53 -18 -38 -20 -54 -14 -132 5 -71 10
-93 26 -106 25 -22 45 -42 68 -69 13 -15 31 -21 58 -21 46 0 91 -31 91 -64 0
-13 -16 -55 -35 -94 -43 -85 -140 -181 -321 -317 -65 -49 -143 -112 -173 -140
-33 -30 -52 -42 -47 -30 19 51 28 124 22 178 -5 50 -3 65 15 93 11 19 24 34
29 34 4 0 28 -11 51 -25 59 -33 118 -41 155 -22 37 20 184 160 184 175 0 7
-15 12 -36 12 -29 0 -46 9 -91 50 -29 27 -69 54 -89 59 -90 25 -167 -48 -181
-172 -6 -48 -36 -107 -55 -107 -5 0 -7 53 -6 118 3 113 2 119 -25 165 -32 55
-93 102 -149 118 -50 13 -119 -6 -200 -55 -75 -46 -137 -66 -200 -66 -50 0
-54 -2 -100 -52 -49 -53 -63 -86 -30 -73 41 17 52 15 98 -18 88 -62 132 -80
185 -74 26 3 70 17 98 31 65 34 91 33 126 -4 36 -38 86 -55 115 -40 11 6 25 8
31 4 11 -6 30 -46 44 -92 6 -22 5 -23 -17 -16 -12 4 -52 9 -88 10 -36 1 -95 5
-132 9 -61 7 -72 5 -121 -19 -55 -26 -119 -92 -150 -153 -24 -45 -22 -139 4
-209 16 -42 20 -72 17 -120 -3 -42 0 -64 7 -64 6 0 27 20 48 44 27 33 62 57
134 93 122 60 194 127 210 193 6 25 9 80 6 123 l-6 77 27 0 c53 0 66 -15 66
-76 0 -90 -27 -168 -81 -229 -164 -188 -267 -363 -375 -637 -135 -346 -282
-596 -446 -762 -54 -55 -98 -103 -98 -108 0 -22 29 0 115 86 161 163 317 429
449 764 93 236 174 388 212 398 26 7 92 -20 100 -40 6 -15 -19 -73 -61 -141
-44 -72 -29 -119 76 -231 29 -32 52 -67 59 -93 6 -22 15 -41 20 -41 15 0 144
149 162 188 35 75 13 146 -73 238 -38 40 -75 66 -136 94 -46 22 -90 40 -98 40
-8 0 -15 4 -15 8 0 12 44 31 88 38 34 5 46 1 103 -39 35 -25 88 -74 117 -109
57 -69 125 -116 213 -146 30 -11 91 -37 135 -58 84 -40 100 -45 97 -29 -1 6
-4 46 -8 90 -7 86 -29 184 -50 225 -19 36 -45 57 -91 74 -23 8 -71 35 -108 60
-64 43 -71 46 -134 46 -71 0 -151 -26 -210 -68 -16 -12 -43 -22 -59 -22 -16 0
-50 -11 -76 -23 -59 -30 -55 -22 53 111 97 120 178 199 295 288 287 217 384
318 420 438 7 25 19 12 35 -37 14 -45 50 -71 86 -64 20 4 36 -4 65 -30 33 -30
44 -34 71 -29 18 4 58 11 89 15 108 16 167 62 156 120 -6 26 -3 30 23 36 16 3
35 17 44 29 10 16 28 25 56 29 61 8 88 38 88 95 0 26 -7 57 -15 70 -12 20 -11
26 10 55 48 64 60 147 32 214 -8 19 -15 47 -15 62 0 35 -100 125 -156 140 -33
9 -42 17 -57 56 -25 59 -51 91 -95 116 -21 11 -52 31 -71 44 -40 30 -46 30
-91 5z m98 -37 c20 -16 49 -35 66 -43 29 -14 75 -81 76 -108 0 -17 -49 -8
-102 19 -67 34 -132 43 -184 25 -67 -23 -133 -80 -159 -140 -23 -51 -24 -51
-40 -1 -7 24 25 111 56 148 38 46 116 97 149 97 14 0 35 7 46 15 28 21 53 18
92 -12z m-318 -93 c0 -5 -9 -24 -20 -42 -11 -18 -20 -41 -20 -50 0 -21 -16
-24 -23 -5 -2 6 -8 9 -12 5 -4 -4 10 -42 30 -85 50 -106 95 -246 95 -296 0
-31 -7 -48 -24 -64 -22 -21 -24 -22 -38 -5 -9 9 -19 27 -23 40 -3 12 -39 67
-80 121 -92 124 -95 130 -95 187 0 26 -6 63 -12 82 -12 32 -11 36 10 51 13 9
38 28 55 43 27 23 41 27 95 28 34 0 62 -4 62 -10z m225 -30 c-3 -5 -8 -26 -11
-47 -2 -20 -12 -48 -22 -61 -51 -73 -54 -102 -13 -184 l28 -57 -16 -65 -16
-64 -47 1 -46 2 -7 51 c-3 27 -19 87 -35 133 -27 80 -28 85 -14 132 18 60 68
113 138 145 57 25 70 29 61 14z m166 -51 c73 -36 89 -52 89 -86 0 -11 -7 -7
-21 11 -36 46 -106 80 -166 81 -43 0 -53 3 -53 17 0 37 43 31 151 -23z m-40
-24 c114 -40 161 -165 88 -231 -31 -28 -127 -27 -166 2 -42 31 -93 102 -93
130 0 37 13 29 38 -25 25 -55 32 -59 115 -71 71 -11 104 0 113 36 9 35 -12
101 -37 114 -30 16 -130 8 -142 -11 -30 -47 45 -115 100 -90 29 13 29 38 1 68
-27 29 -18 39 18 21 29 -14 47 -61 37 -99 -4 -16 -14 -19 -59 -19 -70 0 -100
13 -124 52 -23 37 -25 66 -9 102 18 38 54 44 120 21z m253 -57 c31 -24 58 -54
61 -68 3 -14 11 -43 17 -65 16 -59 10 -134 -15 -177 -11 -21 -26 -37 -31 -35
-6 2 -35 38 -65 81 -48 69 -52 80 -42 102 16 37 13 75 -9 109 -11 17 -20 42
-20 57 0 15 -7 33 -15 42 -24 23 -18 26 24 11 22 -7 64 -33 95 -57z m-292 -11
c-6 -7 -8 -24 -5 -38 6 -21 5 -23 -10 -10 -28 22 -21 61 11 61 11 0 12 -3 4
-13z m41 -21 c23 -18 22 -36 -3 -36 -11 0 -20 4 -20 9 0 5 -3 16 -6 25 -7 19
5 20 29 2z m164 -81 c-31 -141 -62 -191 -143 -231 -46 -23 -63 -26 -110 -21
-31 3 -58 8 -60 10 -3 2 3 36 12 74 l17 70 -26 48 c-36 63 -34 67 9 17 47 -55
81 -72 144 -72 90 0 132 40 132 127 0 35 1 36 15 18 8 -11 12 -29 10 -40z
m-672 -87 c56 -71 64 -89 23 -50 -29 27 -58 42 -58 29 0 -2 24 -28 53 -58 28
-30 67 -71 85 -92 58 -66 188 -140 332 -189 87 -29 154 -68 164 -95 10 -25
-22 -63 -67 -83 -23 -10 -76 -21 -117 -24 -75 -6 -76 -6 -105 24 -22 23 -37
30 -60 28 -43 -3 -51 5 -90 81 -41 82 -83 121 -130 121 -28 0 -45 10 -86 50
-46 45 -52 55 -51 88 1 21 -3 53 -8 71 -7 25 -5 43 6 70 14 34 51 81 63 81 3
-1 24 -24 46 -52z m707 -76 c15 -26 42 -66 60 -90 42 -56 55 -136 24 -158 -11
-8 -35 -14 -54 -14 -24 0 -41 -8 -60 -29 -40 -42 -71 -46 -127 -15 -26 15 -72
35 -103 44 l-57 18 37 15 c25 11 54 14 97 10 103 -10 134 32 130 176 -3 105
11 116 53 43z m-72 -54 c-1 -55 -19 -113 -41 -130 -18 -15 -32 -17 -79 -12
-46 5 -66 2 -105 -15 l-48 -21 -88 47 c-49 25 -89 50 -89 54 0 4 8 15 17 24
14 14 29 16 87 11 39 -3 93 -10 121 -15 63 -11 126 6 175 48 42 36 50 38 50 9z
m-1257 -202 c39 -17 102 -81 116 -119 6 -16 11 -58 11 -95 l-1 -67 -16 30
c-28 53 -72 103 -121 135 l-47 32 -105 -6 c-58 -3 -123 -8 -145 -11 -40 -5
-40 -5 -10 8 16 6 70 33 120 59 97 51 141 59 198 34z m-59 -116 c34 -13 101
-75 137 -126 l28 -42 -31 -6 c-51 -10 -62 -7 -103 29 -56 50 -74 52 -149 16
-99 -48 -145 -44 -238 19 -40 27 -79 50 -85 50 -22 0 -14 15 16 33 20 12 53
17 103 18 40 1 111 4 158 8 128 12 137 12 164 1z m512 -37 c25 -21 58 -46 72
-56 l27 -19 -61 6 c-72 8 -139 -5 -207 -40 -27 -13 -50 -24 -53 -24 -8 0 9 67
27 105 39 85 115 96 195 28z m28 -154 c-66 -61 -66 -61 -118 -57 -57 5 -134
44 -118 60 25 25 150 58 224 58 l77 0 -65 -61z m-539 -118 l30 -6 -45 -27
c-25 -14 -62 -49 -83 -76 -38 -50 -114 -204 -137 -277 -16 -51 -30 -67 -30
-34 0 13 -9 53 -20 88 -32 101 -16 171 58 253 63 69 142 97 227 79z m93 -107
c3 -88 1 -100 -23 -140 -29 -49 -76 -84 -185 -139 -41 -20 -88 -49 -104 -64
-16 -14 -26 -19 -23 -11 61 157 140 312 184 361 33 36 112 87 138 88 6 1 11
-39 13 -95z m355 -330 c18 -9 52 -31 77 -50 25 -18 57 -35 71 -39 15 -4 42
-19 61 -35 29 -24 38 -42 56 -112 23 -91 36 -197 23 -182 -5 5 -19 40 -31 77
-31 96 -70 142 -165 195 -146 82 -152 84 -257 90 -62 3 -95 9 -90 14 19 19
138 57 180 57 24 1 57 -6 75 -15z m-125 -84 c35 -5 80 -17 100 -28 126 -66
160 -86 185 -110 28 -26 113 -189 104 -198 -2 -3 -20 4 -38 15 -19 11 -72 34
-119 52 -108 41 -152 71 -225 154 -32 37 -79 80 -104 96 l-46 29 40 0 c22 0
68 -5 103 -10z m-181 -147 c43 -102 54 -165 48 -264 -4 -53 -11 -102 -16 -110
-5 -8 -9 -9 -9 -3 0 6 -27 44 -60 83 -62 74 -90 119 -90 144 0 8 18 41 39 73
22 33 42 71 46 87 10 37 23 34 42 -10z m80 -20 c136 -135 139 -205 13 -343
-41 -44 -41 -45 -36 -15 4 17 9 75 12 130 6 99 -4 152 -50 258 -14 31 11 18
61 -30z"/>
<path d="M5212 2995 c-11 -13 -27 -53 -36 -89 -20 -82 -178 -422 -416 -897
l-113 -226 -92 -12 c-223 -29 -395 -94 -525 -198 -133 -105 -175 -178 -168
-286 5 -81 35 -128 102 -159 66 -31 152 -30 219 2 119 57 266 235 427 520 30
52 55 97 56 99 2 2 27 5 56 7 29 3 83 9 120 14 91 14 87 15 78 -27 -28 -126
-38 -426 -19 -542 14 -86 53 -168 93 -192 128 -78 335 66 539 378 97 149 151
253 139 265 -11 11 -42 -5 -42 -22 0 -5 -23 -47 -50 -95 -136 -235 -295 -422
-379 -445 -55 -15 -83 -4 -108 42 -28 50 -25 343 5 537 12 78 24 146 27 151 2
4 18 10 35 14 96 19 310 128 310 159 0 23 -18 22 -55 -4 -68 -46 -272 -136
-283 -124 -9 8 101 472 189 800 59 218 58 243 -8 316 -41 46 -73 50 -101 14z
m107 -95 c5 -45 0 -97 -13 -138 -9 -26 -17 -56 -19 -67 -1 -11 -5 -24 -9 -30
-3 -5 -9 -23 -12 -40 -11 -51 -14 -64 -64 -265 -74 -295 -93 -379 -99 -450 -3
-36 -10 -73 -15 -83 -19 -38 -49 -280 -55 -442 -6 -196 6 -261 57 -310 34 -32
31 -45 -10 -45 -48 0 -79 18 -97 55 -9 19 -20 35 -23 35 -4 0 -7 6 -7 13 0 6
-6 41 -12 77 -15 91 -14 267 4 423 8 73 14 139 13 147 -1 8 3 33 9 55 6 22 23
110 38 195 34 193 31 178 43 225 6 22 13 54 16 70 3 17 8 41 11 55 3 14 9 39
12 55 3 17 9 38 14 47 11 20 15 111 5 126 -3 6 10 45 30 89 57 125 62 136 74
183 7 25 19 57 28 73 l17 27 31 -32 c17 -18 31 -40 33 -48z m-235 -337 c-27
-86 -104 -429 -124 -555 -11 -68 -22 -137 -25 -155 -6 -36 -1 -34 -154 -54
-45 -5 -85 -8 -88 -5 -3 3 4 18 16 34 26 37 261 518 327 669 51 117 74 149 48
66z m-509 -905 c-140 -245 -306 -449 -400 -493 -104 -49 -220 -20 -262 65 -29
56 -29 92 1 156 49 106 206 226 366 282 100 35 325 85 339 76 2 -2 -18 -40
-44 -86z"/>
</g>
</svg>
